<?xml version="1.0" standalone="no"?>
<!DOCTYPE svg PUBLIC "-//W3C//DTD SVG 20010904//EN"
 "http://www.w3.org/TR/2001/REC-SVG-20010904/DTD/svg10.dtd">
<svg version="1.0" xmlns="http://www.w3.org/2000/svg"
 width="740.000000pt" height="740.000000pt" viewBox="0 0 740.000000 740.000000"
 preserveAspectRatio="xMidYMid meet">
<metadata>
Created by potrace 1.14, written by Peter Selinger 2001-2017
</metadata>
<g transform="translate(0.000000,740.000000) scale(0.100000,-0.100000)"
fill="#000000" stroke="none">
<path d="M0 6232 l0 -138 196 0 c120 1 198 -3 203 -9 4 -5 7 -262 6 -571 l-1
-560 156 -1 155 0 0 551 c0 303 1 560 3 571 3 19 11 20 193 19 153 -1 193 2
205 13 8 8 12 18 9 23 -3 5 -5 37 -5 72 1 54 0 98 -3 156 0 9 -119 12 -559 12
l-558 0 0 -138z"/>
<path d="M1558 6331 c-2 -21 0 -52 3 -69 3 -17 4 -34 1 -37 -3 -3 -4 -49 -3
-103 1 -53 2 -104 2 -112 -1 -18 -1 -101 0 -115 1 -5 0 -30 0 -55 -1 -59 -1
-105 0 -190 0 -8 -1 -144 -1 -302 -1 -158 1 -292 5 -298 3 -5 2 -10 -3 -10 -4
0 -6 -19 -3 -42 l6 -43 148 -1 c105 -1 150 2 153 10 2 6 6 144 7 306 l2 295
298 0 c163 1 298 -2 298 -5 1 -3 2 -140 3 -305 l1 -300 155 0 155 0 2 708 1
707 -153 0 c-113 0 -154 -3 -157 -12 -2 -7 -4 -126 -4 -265 l1 -251 -302 0
-303 1 0 263 0 264 -154 0 -154 0 -4 -39z"/>
<path d="M3210 5661 l0 -708 500 0 501 0 -3 145 -3 145 -58 1 c-33 0 -61 -2
-64 -7 -2 -4 -9 -4 -15 -1 -5 3 -130 6 -278 6 l-268 1 -4 28 c-3 16 -1 29 4
29 5 0 7 4 3 10 -6 9 -8 69 -6 167 l1 53 307 2 306 3 0 125 c-1 69 -2 132 -2
141 -1 15 -30 17 -302 17 -165 0 -303 2 -306 6 -5 5 -8 107 -3 131 1 6 1 15 0
20 -4 20 -2 97 3 102 3 3 150 5 326 5 l321 1 0 143 0 144 -480 0 -480 0 0
-709z"/>
<path d="M5183 6350 c-164 -43 -307 -136 -398 -260 -40 -54 -99 -160 -89 -160
3 0 2 -6 -4 -12 -10 -13 -28 -73 -40 -133 -11 -53 -6 -243 8 -287 29 -97 71
-198 82 -198 5 0 8 -7 8 -15 0 -8 4 -15 9 -15 5 0 12 -9 16 -20 9 -28 118
-134 182 -176 73 -48 151 -81 242 -102 69 -17 141 -18 821 -17 736 1 746 1
823 23 257 73 449 270 508 522 41 171 6 391 -82 524 -21 32 -39 61 -39 65 0
25 -228 211 -258 211 -5 0 -23 7 -39 15 -17 8 -64 24 -104 35 -70 18 -116 19
-824 18 -697 0 -755 -1 -822 -18z"/>
<path d="M50 4388 c-1 -25 -1 -136 0 -906 l0 -493 153 3 152 3 2 40 c1 22 2
163 2 313 0 149 1 307 1 350 1 210 1 239 -1 248 -1 5 -1 38 0 74 l1 65 51
-150 c28 -82 52 -157 54 -165 6 -21 221 -668 235 -705 11 -29 18 -52 19 -67 1
-5 55 -8 120 -8 l119 0 12 33 c6 17 54 158 106 312 53 154 99 289 104 300 8
19 23 64 25 75 0 4 47 139 63 180 3 8 6 18 7 23 2 4 4 9 5 12 1 3 3 8 4 13 6
27 39 113 44 116 4 2 7 -235 7 -527 l0 -532 157 -3 156 -2 0 710 0 710 -235
-2 -235 -3 -38 -105 c-21 -58 -64 -177 -95 -265 -30 -88 -58 -167 -62 -175 -3
-8 -7 -19 -9 -25 -1 -5 -23 -68 -48 -140 -56 -157 -53 -148 -56 -160 -4 -17
-21 -47 -26 -43 -2 2 -31 83 -65 179 -33 96 -73 210 -89 254 -116 331 -159
452 -165 468 -7 15 -28 17 -241 17 l-234 0 0 -22z"/>
<path d="M2618 4395 c-27 -6 -48 -11 -48 -9 0 4 -74 -22 -118 -42 -164 -76
-310 -238 -370 -410 -26 -77 -34 -121 -36 -224 -6 -191 69 -375 208 -513 55
-54 173 -136 207 -142 12 -2 26 -8 33 -13 33 -25 142 -45 251 -45 185 -1 337
57 478 184 213 190 282 502 175 790 -44 119 -182 276 -299 341 -60 33 -158 72
-211 84 -51 12 -225 11 -270 -1z"/>
<path d="M3623 4398 c3 -7 69 -173 147 -368 77 -195 145 -364 150 -375 5 -11
41 -101 80 -200 40 -99 80 -199 91 -222 10 -24 19 -49 19 -56 0 -7 4 -17 8
-22 5 -6 22 -44 38 -86 l29 -76 123 0 124 0 28 61 c15 34 33 77 40 96 7 19 21
53 31 75 9 22 49 119 88 215 40 96 81 194 92 217 10 24 19 46 19 49 0 3 6 20
14 37 35 83 69 163 121 292 31 77 66 159 76 182 10 23 19 46 19 51 0 4 9 27
20 50 11 23 25 53 30 66 l9 24 -164 1 c-148 2 -165 0 -173 -16 -6 -10 -40 -97
-76 -193 -37 -96 -71 -184 -76 -195 -11 -27 -104 -269 -105 -275 -1 -10 -67
-176 -84 -215 -18 -38 -19 -38 -25 -15 -4 14 -11 34 -16 45 -4 11 -31 83 -60
160 -28 77 -55 149 -60 160 -18 41 -152 401 -161 432 -5 18 -16 45 -24 60 -8
15 -15 34 -15 41 0 9 -43 12 -181 12 -141 0 -180 -3 -176 -12z"/>
<path d="M5487 4403 c-2 -5 -4 -323 -3 -708 l1 -700 145 -2 c80 -1 149 2 155
7 7 6 10 243 9 702 -1 381 -2 696 -3 701 0 4 -68 7 -150 7 -83 0 -152 -3 -154
-7z"/>
<path d="M6371 3701 l-1 -709 500 0 500 0 0 142 0 142 -27 3 c-16 1 -35 3 -43
2 -42 -1 -119 -2 -126 0 -5 1 -13 1 -19 0 -27 -5 -297 -1 -305 4 -5 3 -11 2
-13 -2 -3 -5 -38 -7 -79 -5 l-75 3 0 144 c0 79 3 144 6 143 3 0 142 0 307 1
l301 1 -1 143 -1 142 -305 0 -305 0 -1 133 -1 132 31 1 c17 1 36 0 41 -1 12
-3 46 -2 143 2 39 2 72 0 72 -4 0 -3 8 -4 18 -2 26 6 142 10 142 4 0 -5 28 -4
159 3 l43 2 2 143 1 142 -481 0 -481 0 -2 -709z"/>
<path d="M757 2444 c-1 -1 -23 -5 -48 -8 -86 -12 -199 -58 -287 -118 -77 -53
-202 -193 -202 -227 0 -6 -3 -11 -8 -11 -8 0 -19 -25 -50 -111 -65 -178 -44
-410 52 -579 88 -156 254 -286 419 -331 23 -6 51 -14 62 -17 33 -11 2755 -12
2805 -2 93 19 101 22 188 61 129 59 256 182 319 310 23 46 46 96 52 111 31 81
36 308 7 403 -75 253 -260 435 -511 501 -66 17 -143 18 -1433 19 -749 1 -1363
1 -1365 -1z"/>
<path d="M4535 2439 c-3 -4 -5 -323 -4 -709 l2 -701 326 4 c179 2 344 8 366
12 22 4 80 20 128 37 229 76 386 231 456 449 20 63 23 82 26 191 3 115 -9 201
-36 273 -67 174 -175 291 -344 368 -42 19 -158 53 -210 61 -16 2 -30 5 -30 6
0 12 -673 21 -680 9z m670 -302 c123 -35 220 -109 269 -206 78 -152 43 -373
-75 -489 -41 -39 -124 -88 -170 -98 -10 -2 -29 -6 -41 -9 -13 -3 -50 -8 -83
-10 -33 -2 -60 -5 -60 -5 0 -1 -39 -2 -88 -3 -48 -1 -87 1 -87 5 0 4 -6 5 -13
2 -11 -4 -13 70 -11 408 1 227 2 416 3 421 2 12 302 -1 356 -16z"/>
<path d="M6290 1739 l0 -710 358 4 c196 2 371 7 387 11 88 21 115 31 173 62
127 69 192 174 192 307 0 87 -18 151 -58 208 -45 64 -99 103 -183 134 -50 18
-60 25 -44 30 83 28 153 88 188 159 34 68 42 175 20 251 -40 133 -134 203
-323 241 -19 3 -187 8 -372 10 l-338 4 0 -711z m620 431 c51 -14 109 -67 111
-102 6 -89 -20 -137 -89 -165 -39 -17 -71 -20 -189 -21 l-143 -1 -1 32 c-1 18
-1 41 0 52 0 11 1 63 2 115 1 52 3 97 4 100 6 10 262 2 305 -10z m58 -570 c24
-8 59 -28 79 -46 29 -27 36 -40 38 -80 4 -57 -9 -90 -49 -127 -44 -41 -94 -50
-271 -51 l-160 -1 -2 150 c-1 83 0 155 2 161 5 16 307 11 363 -6z"/>
</g>
</svg>
